<svg width="156" height="26" viewBox="0 0 156 26" fill="none" xmlns="http://www.w3.org/2000/svg">
<g clip-path="url(#clip0_1508_57)">
<path d="M49.5805 24.5754L40.424 1.74612C40.2068 1.21373 40.0032 0.905682 39.8098 0.818624C39.7012 0.778444 39.3244 0.755005 38.6762 0.755005H34.8887C34.0471 0.755005 33.5108 1.06306 33.2733 1.67916L24.0828 24.572C23.9742 24.8499 23.9199 25.0508 23.9199 25.1781C23.9199 25.2852 24.0489 25.3388 24.3068 25.3388H28.7425C29.1091 25.3388 29.3568 25.1915 29.4858 24.8935L29.6453 24.495H29.6317L30.3546 22.7271L31.1521 20.7381C31.1521 20.7381 31.1657 20.7348 31.1759 20.7314L36.7587 7.10018L36.7655 7.11357L36.7825 7.07339L40.3222 15.6385H40.2985L42.3755 20.6511L44.1403 24.9002C44.2489 25.1982 44.4864 25.3455 44.853 25.3455H49.4821C49.74 25.3455 49.774 25.091 49.5771 24.5821" fill="#00287B"/>
<path d="M16.7687 11.3091L8.8747 9.60478C7.24227 9.0456 6.42776 8.31565 6.42776 7.41494C6.42776 6.27649 7.24227 5.71061 8.8747 5.71061H20.4544C21.9545 5.71061 22.7079 4.98067 22.7079 3.52077V1.10659C22.7079 0.76171 22.5416 0.590942 22.2192 0.590942H8.61337C6.15625 0.590942 4.14372 1.19365 2.57578 2.39237C0.858513 3.70159 -0.00012207 5.5365 -0.00012207 7.8971C-0.00012207 11.3928 2.30767 13.6563 6.91647 14.6843L14.5492 16.3986C16.3547 16.8071 17.2574 17.5371 17.2574 18.5851C17.2574 19.7202 16.3547 20.2895 14.5492 20.2895H2.44682C1.16396 20.2895 0.522525 20.9424 0.522525 22.2516V24.8901C0.522525 25.235 0.675247 25.4058 0.98069 25.4058H14.0638C16.7382 25.4058 18.8797 24.9002 20.4883 23.8923C22.4466 22.6701 23.4274 20.8252 23.4274 18.3541C23.4274 14.6206 21.2078 12.2701 16.7721 11.3058" fill="#00287B"/>
<path d="M75.3222 8.91152C75.3222 3.40679 72.0268 0.654419 65.4394 0.654419H53.3677C52.0848 0.654419 51.4434 1.28726 51.4434 2.55295V25.1512C51.4434 25.3219 51.5621 25.409 51.8031 25.409H55.784C57.0669 25.409 57.7083 24.7761 57.7083 23.5071V17.1351H65.4428C72.0336 17.1351 75.3256 14.3928 75.3256 8.91152M68.6975 9.50753C68.5448 10.5589 67.9882 11.2688 67.0244 11.6304C66.4576 11.8447 65.4802 11.9518 64.1057 11.9518H57.7049V5.6435H64.0649C65.3919 5.6435 66.3693 5.7607 67.0006 5.99843C67.978 6.3634 68.5244 7.06991 68.633 8.1213H68.667C68.6873 8.42266 68.6975 8.61351 68.6975 8.70057V9.50418V9.50753Z" fill="#00287B"/>
<path d="M83.2861 1.17021C83.2861 0.785148 83.1334 0.590942 82.8314 0.590942H78.5246C78.0223 0.590942 77.6965 0.69809 77.5438 0.912387C77.3911 1.12668 77.3164 1.5017 77.3164 2.04079V24.0229C77.3164 24.6055 77.3979 24.9772 77.5608 25.1513C77.7237 25.3254 78.0868 25.4091 78.6536 25.4091H82.7635C83.113 25.4091 83.2861 25.2384 83.2861 24.8968V1.17021Z" fill="#00287B"/>
<path d="M105.088 1.07311C105.088 0.751665 104.97 0.590942 104.729 0.590942H88.0243C86.8907 0.590942 86.324 1.24388 86.324 2.55309V24.793C86.324 25.2015 86.5208 25.4058 86.9145 25.4058H104.627C104.908 25.4058 105.051 25.2015 105.051 24.793V22.188C105.051 21.4379 104.997 20.9658 104.888 20.7716C104.715 20.4502 104.287 20.2895 103.612 20.2895H91.9034V15.4611H102.54C102.869 15.4611 103.032 15.3004 103.032 14.9756V11.1785C103.032 10.7265 102.791 10.5021 102.309 10.5021H91.9034V5.61016H103.514C104.189 5.61016 104.62 5.54654 104.807 5.41596C104.99 5.28872 105.085 4.91035 105.085 4.28755V1.07311H105.088Z" fill="#00287B"/>
<path d="M130.354 1.14008C130.354 0.775103 130.225 0.594291 129.961 0.594291H126.078C125.209 0.594291 124.775 1.2037 124.775 2.4292V15.6553L114.173 0.912387C114.02 0.69809 113.823 0.590942 113.585 0.590942H109.214C108.281 0.590942 107.812 1.20035 107.812 2.42585V24.6658C107.812 24.9872 107.823 25.1714 107.846 25.2149C107.911 25.3422 108.084 25.4091 108.366 25.4091H111.858C112.554 25.4091 113.002 25.2584 113.195 24.9571C113.372 24.7428 113.456 24.2707 113.456 23.5407V9.59473L124.551 25.1814C124.639 25.3321 124.856 25.4058 125.206 25.4058H129.119C129.774 25.4058 130.151 25.245 130.259 24.9236C130.327 24.7964 130.358 24.3242 130.358 23.5072V1.14008H130.354Z" fill="#00287B"/>
<path d="M149.339 11.3091L141.445 9.60478C139.813 9.0456 138.998 8.31565 138.998 7.41494C138.998 6.27649 139.813 5.71061 141.445 5.71061H153.028C154.528 5.71061 155.278 4.98067 155.278 3.52077V1.10659C155.278 0.76171 155.115 0.590942 154.789 0.590942H141.184C138.727 0.590942 136.714 1.19365 135.149 2.39237C133.432 3.70159 132.57 5.53315 132.57 7.89375C132.57 11.3895 134.878 13.653 139.49 14.6809L147.123 16.3953C148.928 16.8038 149.831 17.5337 149.831 18.5818C149.831 19.7169 148.928 20.2861 147.123 20.2861H135.017C133.734 20.2861 133.093 20.939 133.093 22.2483V24.8868C133.093 25.2317 133.246 25.4024 133.551 25.4024H146.631C149.305 25.4024 151.45 24.8968 153.059 23.889C155.017 22.6668 155.994 20.8218 155.994 18.3507C155.994 14.6173 153.775 12.2667 149.339 11.3024" fill="#00287B"/>
<path d="M16.168 14.9725C26.3664 20.1491 34.0771 18.4146 43.2472 12.036C48.0732 8.68088 50.7068 14.266 45.9181 17.1958C35.774 23.4004 25.7249 21.6257 16.1714 14.9691" fill="#00BDFF"/>
</g>
<defs>
<clipPath id="clip0_1508_57">
<rect width="156" height="24.8182" fill="white" transform="translate(0 0.590942)"/>
</clipPath>
</defs>
</svg>
